<?xml version="1.0" standalone="no"?>
<!DOCTYPE svg PUBLIC "-//W3C//DTD SVG 20010904//EN"
 "http://www.w3.org/TR/2001/REC-SVG-20010904/DTD/svg10.dtd">
<svg version="1.0" xmlns="http://www.w3.org/2000/svg"
 width="512.000000pt" height="512.000000pt" viewBox="0 0 512.000000 512.000000"
 preserveAspectRatio="xMidYMid meet">
<metadata>
Created by potrace 1.11, written by Peter Selinger 2001-2013
</metadata>
<g transform="translate(0.000000,512.000000) scale(0.100000,-0.100000)"
fill="#000000" stroke="none">
<path d="M0 2560 l0 -2560 2560 0 2560 0 0 2560 0 2560 -2560 0 -2560 0 0
-2560z m2600 412 c19 -9 38 -18 42 -20 3 -1 9 6 13 17 3 12 13 21 21 21 11 0
14 -17 14 -80 0 -93 -16 -106 -50 -41 -31 61 -72 85 -155 89 -61 3 -75 0 -105
-20 -19 -13 -46 -44 -60 -68 -23 -41 -25 -56 -25 -160 0 -100 3 -121 23 -162
36 -73 71 -93 162 -93 57 0 82 5 103 19 25 17 27 23 27 92 l0 74 -50 0 c-38 0
-50 4 -50 15 0 13 20 15 120 15 100 0 120 -2 120 -15 0 -9 -9 -15 -25 -15 -24
0 -25 -2 -25 -74 0 -68 -2 -76 -26 -95 -70 -55 -236 -72 -326 -33 -111 49
-171 143 -171 267 1 135 69 232 196 277 61 22 169 17 227 -10z m-1745 -2 c52
-25 75 -64 75 -127 -1 -51 -14 -76 -56 -104 l-27 -17 34 -15 c61 -26 84 -61
84 -127 0 -69 -20 -103 -81 -134 -35 -19 -56 -21 -219 -21 -153 0 -180 2 -180
15 0 10 10 15 30 15 l30 1 0 249 0 250 -32 3 c-32 3 -40 11 -26 25 3 4 78 7
167 7 139 0 165 -3 201 -20z m655 -65 c0 -66 -3 -85 -14 -85 -9 0 -16 17 -21
46 -10 72 -29 84 -135 85 -49 1 -98 2 -107 3 -16 1 -18 -12 -21 -112 l-3 -113
68 3 c66 3 69 4 83 35 28 60 40 41 40 -62 0 -74 -3 -95 -14 -95 -8 0 -17 15
-20 35 -8 42 -33 55 -107 55 l-50 0 3 -121 3 -122 100 2 c122 2 143 14 164 90
20 75 36 59 39 -42 l3 -87 -246 0 c-229 0 -246 1 -243 18 2 12 13 17 38 18
l35 0 0 250 0 249 -35 0 c-25 0 -36 5 -38 18 -3 16 13 17 237 17 l241 0 0 -85z
m446 70 c71 -21 97 -52 101 -123 5 -71 -17 -111 -76 -138 -41 -19 -53 -34 -27
-34 33 0 75 -51 96 -118 21 -65 62 -118 81 -107 5 4 9 -4 9 -16 0 -20 -4 -21
-64 -17 -80 5 -101 22 -122 97 -35 128 -65 161 -145 161 l-50 0 3 -112 3 -113
43 -3 c28 -2 42 -7 39 -15 -2 -8 -42 -13 -125 -15 -118 -3 -122 -2 -122 18 0
17 5 21 28 18 l27 -3 0 250 c0 193 -3 250 -12 251 -7 1 -20 2 -28 3 -8 0 -15
8 -15 16 0 21 284 22 356 0z m1100 -185 c43 -109 82 -199 85 -200 3 0 41 90
84 200 l79 200 93 0 c74 0 93 -3 93 -14 0 -9 -12 -16 -32 -18 l-33 -3 0 -249
0 -250 35 0 c25 -1 36 -6 38 -19 3 -16 -6 -17 -119 -15 -87 2 -124 7 -127 16
-2 8 8 12 32 12 l36 0 0 238 -1 237 -99 -244 c-55 -134 -102 -246 -105 -249
-3 -3 -8 -3 -11 0 -3 4 -52 116 -109 250 l-104 243 -1 -237 0 -238 30 0 c20 0
30 -5 30 -15 0 -13 -14 -15 -82 -13 -54 2 -83 7 -86 16 -2 8 8 12 32 12 l36 0
-2 253 -3 252 -30 0 c-20 0 -31 6 -33 18 -3 15 7 17 96 17 l99 0 79 -200z
m865 -65 c78 -190 113 -263 128 -270 12 -5 21 -15 21 -22 0 -10 -26 -13 -100
-13 -82 0 -100 3 -100 15 0 9 10 15 26 15 28 0 28 6 -7 88 l-18 42 -110 0
-110 0 -20 -55 c-26 -70 -26 -71 6 -70 18 0 29 -6 31 -17 3 -16 -6 -18 -73
-18 -67 0 -76 2 -73 18 2 9 10 17 18 17 8 0 18 5 21 10 4 6 50 122 104 260 53
137 99 253 102 258 3 4 15 7 26 5 18 -2 39 -45 128 -263z m484 73 c71 -106
137 -204 147 -217 18 -23 18 -20 18 177 l0 201 -22 -1 c-39 -2 -48 2 -48 17 0
12 17 15 90 15 73 0 90 -3 90 -15 0 -15 -5 -17 -45 -19 -19 -1 -20 -9 -23
-268 l-2 -268 -35 0 c-33 0 -37 5 -185 223 -84 122 -158 229 -166 237 -12 13
-14 -15 -12 -205 l3 -219 35 0 c25 -1 36 -6 38 -18 3 -16 -6 -18 -88 -18 -82
0 -91 2 -88 18 2 11 13 17 31 17 l27 -1 0 252 0 251 -27 -1 c-19 -1 -29 5 -31
17 -3 15 6 17 81 17 l84 0 128 -192z m-3805 -503 c0 -9 -9 -15 -21 -15 -13 0
-19 -5 -17 -12 54 -147 94 -248 99 -248 3 0 26 57 51 128 43 120 45 127 26
132 -10 3 -19 10 -19 15 1 6 51 11 126 13 106 2 125 0 125 -13 0 -8 -7 -15
-15 -15 -13 0 -15 -23 -15 -145 0 -142 1 -147 25 -170 35 -36 88 -34 126 4
l29 29 0 140 c0 136 -1 140 -22 146 -38 9 -6 28 42 24 44 -3 71 -28 31 -28
-20 0 -21 -5 -21 -137 0 -148 -6 -172 -52 -206 -37 -27 -125 -27 -171 2 -50
31 -57 56 -57 205 0 145 -2 150 -59 136 -21 -5 -33 -30 -89 -183 -46 -125 -70
-177 -79 -175 -8 2 -49 83 -91 181 -58 135 -80 177 -94 177 -18 0 -24 11 -11
23 3 4 39 7 80 7 58 0 73 -3 73 -15z m708 -307 c36 -36 -6 -91 -46 -62 -26 18
-28 37 -6 58 19 19 36 20 52 4z m163 2 c41 -22 8 -91 -35 -74 -26 10 -32 55
-11 71 22 16 21 16 46 3z m173 -6 c22 -21 20 -40 -6 -58 -39 -28 -79 13 -52
53 18 25 37 27 58 5z"/>
<path d="M655 2952 c-3 -3 -5 -54 -5 -114 l0 -108 54 0 c102 0 128 24 127 118
-1 78 -26 103 -109 106 -34 2 -64 1 -67 -2z"/>
<path d="M650 2580 l0 -120 48 -1 c73 -2 95 1 120 18 33 21 55 77 47 123 -11
66 -66 100 -161 100 l-54 0 0 -120z"/>
<path d="M1760 2835 l0 -125 68 0 c54 0 73 4 90 20 40 38 50 126 20 183 -14
27 -69 47 -128 47 l-50 0 0 -125z"/>
<path d="M3712 2740 c-23 -61 -42 -115 -42 -120 0 -6 39 -10 90 -10 55 0 90 4
90 10 0 11 -90 230 -94 230 -2 0 -21 -50 -44 -110z"/>
</g>
</svg>
